nColumns=19
nRows=59
DataType=double
version=3
OpenSimVersion=4.1
endheader
time	ground_force_calcn_r_vx	ground_force_calcn_r_vy	ground_force_calcn_r_vz	ground_force_calcn_r_px	ground_force_calcn_r_py	ground_force_calcn_r_pz	ground_force_calcn_r_mx	ground_force_calcn_r_my	ground_force_calcn_r_mz	ground_force_calcn_l_vx	ground_force_calcn_l_vy	ground_force_calcn_l_vz	ground_force_calcn_l_px	ground_force_calcn_l_py	ground_force_calcn_l_pz	ground_force_calcn_l_mx	ground_force_calcn_l_my	ground_force_calcn_l_mz
1.31	0	0	0	0	0	0	0	0	0	-27.9962	30.335	5.52914	-0.0467856	0	-0.685398	0.406119	-0.440046	-0.0802069
1.32	-211.704	318.949	-16.6288	-0.124162	0	-0.429721	-0.748997	1.12843	-0.0588318	-233.542	331.006	29.1877	-0.121686	0	-0.716735	0.685192	-0.971144	-0.0856343
1.33	-470.397	842.154	-63.2314	-0.139726	0	-0.43257	-3.58608	6.42018	-0.482046	-365.747	702.999	62.7099	-0.139619	0	-0.714714	1.94792	-3.74407	-0.333984
1.34	-365.205	1101.88	-145.989	-0.153164	0	-0.429562	-4.11501	12.4157	-1.64495	-182.106	901.109	97.839	-0.160801	0	-0.715047	1.16767	-5.77796	-0.627349
1.35	-333.449	1346.51	-182.739	-0.163494	0	-0.4277	-3.09781	12.5093	-1.69768	-162.94	1159.45	109.873	-0.173882	0	-0.71403	0.464478	-3.30514	-0.313206
1.36	-419.244	1586.6	-178.157	-0.178443	0	-0.428307	-1.35294	5.12009	-0.574928	-296.887	1344.69	111.183	-0.179029	0	-0.712397	-0.657241	2.97684	0.246133
1.37	-367.795	1835.71	-126.841	-0.208838	0	-0.43273	1.12751	-5.62754	0.388842	-321.795	1317.29	80.7757	-0.182632	0	-0.710325	-2.23636	9.15465	0.561361
1.38	-238.827	1913.73	-71.6607	-0.23255	0	-0.438498	1.50186	-12.0345	0.450637	-292.596	1158.29	71.397	-0.183065	0	-0.709824	-2.55056	10.0968	0.622367
1.39	-290.144	1558.78	-70.8085	-0.223844	0	-0.439862	1.8351	-9.85895	0.447848	-274.617	968.172	85.3075	-0.178388	0	-0.71111	-1.80166	6.35182	0.559671
1.4	-389.261	1206.99	-84.5324	-0.196276	0	-0.439982	1.13285	-3.51266	0.246011	-265.015	813.368	94.222	-0.170951	0	-0.712189	-0.797688	2.44822	0.283606
1.41	-374.39	1087.94	-80.1294	-0.185012	0	-0.442358	0.224171	-0.65142	0.0479787	-259.675	707.294	94.877	-0.16494	0	-0.712322	-0.191217	0.520829	0.0698645
1.42	-316.555	1104.74	-62.3799	-0.191827	0	-0.445455	0.483202	-1.68633	0.0952193	-252.432	631.33	84.4914	-0.162611	0	-0.71173	-0.30801	0.77033	0.103094
1.43	-276.664	1129.41	-43.4782	-0.200388	0	-0.448396	0.861246	-3.51582	0.135346	-236.371	586.481	70.0239	-0.167535	0	-0.710804	-0.831836	2.06394	0.246428
1.44	-241.018	1116.76	-37.52	-0.207567	0	-0.450389	0.845886	-3.91942	0.131681	-194.247	595.584	59.0299	-0.187452	0	-0.708199	-1.12438	3.4475	0.34169
1.45	-193.029	1076.08	-46.2791	-0.215108	0	-0.451091	0.550271	-3.0676	0.131929	-104.326	691.186	47.7629	-0.224598	0	-0.701434	-0.655345	4.34181	0.300031
1.46	-152.26	1015.45	-54.1171	-0.221592	0	-0.451132	0.323475	-2.15733	0.114972	9.81504	786.519	32.4607	-0.255911	0	-0.694836	0.050942	4.08219	0.168477
1.47	-129.571	930.87	-54.1286	-0.224987	0	-0.450934	0.208623	-1.4988	0.0871529	47.7023	711.321	26.3275	-0.264024	0	-0.692924	0.209989	3.13128	0.115895
1.48	-116.559	837.614	-53.053	-0.225723	0	-0.450359	0.107006	-0.768969	0.0487051	-4.86726	558.774	32.2442	-0.251042	0	-0.695522	-0.0185832	2.1334	0.123108
1.49	-103.811	761.993	-55.8938	-0.225994	0	-0.449574	0.000784469	-0.00575814	0.000422372	-50.0255	437.678	34.7981	-0.230593	0	-0.699268	-0.172494	1.50916	0.119988
1.5	-87.0932	708.158	-58.6511	-0.226673	0	-0.449009	-0.0497836	0.404792	-0.0335257	-53.5386	365.414	32.3558	-0.216683	0	-0.701095	-0.201455	1.37498	0.121749
1.51	-70.0405	664.025	-58.2432	-0.225819	0	-0.448611	-0.0303623	0.287852	-0.0252482	-39.6559	327.601	31.4974	-0.210132	0	-0.701649	-0.154489	1.27624	0.122705
1.52	-57.2847	623.075	-54.8298	-0.22197	0	-0.448481	0.0147203	-0.16011	0.0140894	-31.9346	306.85	33.3363	-0.205353	0	-0.702117	-0.119633	1.14952	0.124884
1.53	-49.2329	585.908	-49.7859	-0.21515	0	-0.448411	0.0557748	-0.663762	0.0564012	-29.1704	292.193	34.0931	-0.200437	0	-0.702244	-0.114638	1.1483	0.133984
1.54	-47.5907	551.121	-45.3293	-0.206789	0	-0.448238	0.0846629	-0.980434	0.0806399	-24.4092	280.271	33.5346	-0.196876	0	-0.701951	-0.103676	1.19042	0.142435
1.55	-48.8041	516.09	-41.942	-0.198346	0	-0.448083	0.101836	-1.07689	0.0875174	-17.6028	270.17	32.7133	-0.195481	0	-0.701514	-0.0783822	1.20302	0.145667
1.56	-49.3185	482.271	-39.9293	-0.189898	0	-0.44807	0.111286	-1.08824	0.0900998	-10.3059	258.883	31.6448	-0.194811	0	-0.701337	-0.0479977	1.2057	0.14738
1.57	-49.3834	451.562	-38.7998	-0.181416	0	-0.448215	0.109554	-1.00176	0.0860751	-4.01987	244.156	30.2373	-0.193135	0	-0.701345	-0.01888	1.14672	0.142014
1.58	-47.2722	423.688	-37.3024	-0.173295	0	-0.448436	0.101625	-0.910837	0.080192	0.519699	227.754	29.2982	-0.190296	0	-0.701569	0.00225154	0.986722	0.126931
1.59	-42.4844	399.411	-34.4198	-0.166123	0	-0.448894	0.0946831	-0.89015	0.0767099	3.67955	212.432	28.7859	-0.186783	0	-0.701874	0.012042	0.695224	0.0942072
1.6	-38.1011	378.279	-30.8849	-0.160152	0	-0.449433	0.094019	-0.933449	0.0762122	6.14286	197.865	28.2565	-0.182771	0	-0.70192	0.013865	0.446601	0.0637777
1.61	-35.6732	357.793	-27.1325	-0.15536	0	-0.449882	0.101786	-1.02088	0.0774165	8.05585	182.815	27.2076	-0.179407	0	-0.701823	0.0149879	0.340128	0.0506199
1.62	-34.1801	335.566	-22.8285	-0.151687	0	-0.450201	0.125627	-1.23336	0.083905	8.96833	166.534	25.3428	-0.17736	0	-0.70155	0.0250068	0.464355	0.0706647
1.63	-32.1296	308.395	-17.9703	-0.149216	0	-0.450691	0.171719	-1.64824	0.0960437	8.80414	148.833	22.9709	-0.176742	0	-0.700597	0.0458195	0.774576	0.119548
1.64	-29.2411	276.594	-12.3791	-0.149855	0	-0.450518	0.246667	-2.33325	0.104425	8.46223	132.84	20.7255	-0.180161	0	-0.698889	0.0783243	1.22953	0.19183
1.65	-24.3018	245.898	-6.82311	-0.158217	0	-0.450341	0.299947	-3.03501	0.0842148	8.90108	124.325	19.5419	-0.192196	0	-0.696988	0.124407	1.73764	0.273129
1.66	-14.1888	227.443	-4.30216	-0.181491	0	-0.450855	0.199449	-3.19712	0.0604746	12.3588	128.887	19.7574	-0.217636	0	-0.694363	0.225447	2.35113	0.360411
1.67	3.68504	228.541	-5.91348	-0.219414	0	-0.451997	-0.0434466	-2.69449	0.0697198	21.7414	151.032	18.4268	-0.253561	0	-0.689242	0.469539	3.26176	0.397956
1.68	27.2787	245.799	-10.4209	-0.258915	0	-0.452713	-0.233077	-2.10017	0.0890394	36.5815	185.061	13.3973	-0.285409	0	-0.683687	0.770518	3.89794	0.282188
1.69	48.6204	267.7	-14.0497	-0.289515	0	-0.453425	-0.338695	-1.86483	0.0978715	52.3888	213.513	7.68032	-0.307903	0	-0.679321	0.973281	3.96665	0.142685
1.7	60.6014	286.709	-13.2296	-0.309753	0	-0.454463	-0.367392	-1.73815	0.080204	63.4568	224.909	6.7765	-0.321628	0	-0.676215	1.13636	4.0276	0.121351
1.71	64.3626	305.57	-8.31472	-0.321205	0	-0.455622	-0.338311	-1.60617	0.0437048	66.0234	222.434	10.0838	-0.328249	0	-0.674869	1.19063	4.01124	0.181846
1.72	64.635	327.763	-5.12135	-0.326327	0	-0.456968	-0.371146	-1.88208	0.0294078	63.8691	216.212	11.8588	-0.330407	0	-0.67492	1.04518	3.53817	0.194062
1.73	67.1384	355.634	-6.1526	-0.328063	0	-0.457764	-0.444874	-2.35651	0.0407685	63.5084	220.077	10.1606	-0.329347	0	-0.675794	0.8496	2.94414	0.135926
1.74	73.7974	395.507	-8.30781	-0.327327	0	-0.457655	-0.489274	-2.6222	0.0550805	64.5674	240.599	9.03048	-0.325734	0	-0.676658	0.755455	2.81507	0.105659
1.75	80.368	446.17	-9.33928	-0.324412	0	-0.457183	-0.505909	-2.8086	0.0587899	65.1841	274.261	9.17958	-0.321744	0	-0.67758	0.706855	2.97408	0.0995431
1.76	83.5592	499.065	-10.2325	-0.320468	0	-0.456734	-0.53719	-3.20841	0.0657832	66.9852	317.246	8.56925	-0.318057	0	-0.678775	0.6547	3.1007	0.0837542
1.77	84.5241	551.95	-11.9495	-0.315852	0	-0.45601	-0.552676	-3.60903	0.078134	70.882	362.628	7.89939	-0.314018	0	-0.679999	0.639948	3.27394	0.0713185
1.78	84.7323	604.511	-14.6069	-0.311307	0	-0.455321	-0.552648	-3.94279	0.0952703	71.9444	401.761	7.32356	-0.308588	0	-0.681294	0.625171	3.49116	0.0636392
1.79	86.8236	661.234	-17.8491	-0.306071	0	-0.454675	-0.570273	-4.3431	0.117236	70.1164	438.629	7.07633	-0.300707	0	-0.682767	0.605924	3.79049	0.0611513
1.8	83.7751	718.224	-21.1505	-0.298726	0	-0.453857	-0.560075	-4.80166	0.141401	67.2963	488.802	9.15275	-0.289814	0	-0.685025	0.578966	4.20528	0.0787433
1.81	73.0296	776.506	-24.62	-0.289262	0	-0.452854	-0.499235	-5.30825	0.168304	56.0101	547.562	14.1552	-0.276669	0	-0.687738	0.483565	4.7274	0.122209
1.82	58.4765	837.952	-28.7339	-0.277265	0	-0.451668	-0.398025	-5.70358	0.195579	41.3494	606.047	18.8277	-0.262602	0	-0.690098	0.366655	5.37396	0.16695
1.83	35.6849	888.513	-33.8052	-0.263306	0	-0.450493	-0.239368	-5.96	0.22676	25.747	671.235	23.6689	-0.248615	0	-0.692401	0.229517	5.98361	0.210992
1.84	11.7871	932.587	-36.3398	-0.249435	0	-0.449753	-0.0779866	-6.17025	0.240434	7.32815	734.792	30.0273	-0.23552	0	-0.69441	0.0647903	6.49651	0.26548
1.85	-7.36804	980.488	-37.3346	-0.236462	0	-0.449419	0.0484868	-6.4523	0.245688	-11.0494	795.11	37.6349	-0.223527	0	-0.69607	-0.097664	7.02788	0.33265
1.86	-28.5339	1025.38	-39.0062	-0.224048	0	-0.449176	0.185885	-6.67985	0.254107	-29.5392	850.809	45.2055	-0.212618	0	-0.697536	-0.262143	7.55044	0.401172
1.87	-49.5711	1064.53	-40.5264	-0.212747	0	-0.448963	0.32163	-6.90694	0.262946	-48.1488	894.367	51.6881	-0.202823	0	-0.699009	-0.427929	7.94881	0.459385
1.88	-66.0111	1098.7	-43.0906	-0.202857	0	-0.44874	0.424796	-7.07039	0.277298	-64.0302	928.766	59.0674	-0.194791	0	-0.700469	-0.552517	8.01433	0.509693
1.89	-81.2603	1124.37	-48.4452	-0.19398	0	-0.448296	0.50297	-6.95939	0.299857	-75.088	955.412	67.8993	-0.188444	0	-0.70167	-0.601187	7.64945	0.543632
